<svg width="105" height="100" viewBox="0 0 105 100" fill="none" xmlns="http://www.w3.org/2000/svg">
<g id="Laydown">
<path id="Vector" d="M11.6976 87.5389C17.0534 87.5389 21.3952 83.2175 21.3952 77.8867C21.3952 72.556 17.0534 68.2345 11.6976 68.2345C6.34175 68.2345 2 72.556 2 77.8867C2 83.2175 6.34175 87.5389 11.6976 87.5389Z" stroke="black" stroke-width="4" stroke-miterlimit="10" stroke-linecap="round"/>
<path id="Vector_2" d="M7.18311 88.371H98.1957C100.481 88.371 102.32 90.2016 102.32 92.476V93.1416C102.32 95.416 100.481 97.2466 98.1957 97.2466H7.18311C4.89805 97.2466 3.05884 95.416 3.05884 93.1416V92.476C3.05884 90.2571 4.89805 88.371 7.18311 88.371Z" stroke="black" stroke-width="4" stroke-miterlimit="10" stroke-linecap="round"/>
<path id="Vector_3" d="M41.2366 77.2765H64.2544C67.1526 77.2765 69.5491 79.7173 69.5491 82.7128C69.5491 85.7083 67.2083 88.1491 64.2544 88.1491H36.8337C31.2603 88.1491 26.6902 83.4339 26.6902 77.6648C26.6902 71.8957 31.2046 67.1806 36.8337 67.1806H93.7931C98.5305 67.1806 102.32 71.1191 102.32 76.0007V79.1071C102.32 84.1551 98.1961 88.3155 93.0686 88.3155" stroke="black" stroke-width="4" stroke-miterlimit="10" stroke-linecap="round"/>
<path id="Vector_4" d="M55.0582 47.6545L50.3766 52.3142C49.5964 53.0908 49.4849 54.3112 50.098 55.1988L54.055 60.9124C54.3337 61.3007 54.4452 61.7445 54.4452 62.1883V67.2363" stroke="black" stroke-width="4" stroke-miterlimit="10" stroke-linecap="round"/>
<path id="Vector_5" d="M75.9583 47.6545L80.6399 52.3142C81.4201 53.0908 81.5316 54.3112 80.9185 55.1988L76.9615 60.9124C76.6828 61.3007 76.5713 61.7445 76.5713 62.1883V67.2363" stroke="black" stroke-width="4" stroke-miterlimit="10" stroke-linecap="round"/>
<path id="Vector_6" d="M87.4947 67.2361V64.4624C87.4947 63.7968 87.7176 63.1311 88.052 62.5764L93.3467 54.6438C94.5728 52.8133 94.2942 50.3725 92.7894 48.8192L80.528 36.338C79.6363 35.4504 78.4659 34.9512 77.184 34.9512H63.8638" stroke="black" stroke-width="4" stroke-miterlimit="10" stroke-linecap="round"/>
<path id="Vector_7" d="M43.6328 67.236V64.4624C43.6328 63.7967 43.4098 63.1311 43.0754 62.5763L37.7808 54.5883C36.5546 52.7577 36.8333 50.317 38.3381 48.7637L50.5995 36.2825C51.4912 35.3949 52.6616 34.8957 53.9434 34.8957H67.2637" stroke="black" stroke-width="4" stroke-miterlimit="10" stroke-linecap="round"/>
<path id="Vector_8" d="M57.6218 14.8148V7.21514C57.6218 4.60794 59.7397 2.5 62.3592 2.5H69.9946C72.6141 2.5 74.732 4.60794 74.732 7.21514V14.8148" stroke="black" stroke-width="4" stroke-miterlimit="10" stroke-linecap="round"/>
<path id="Vector_9" d="M66.2049 29.0157C71.5608 29.0157 75.9025 24.6943 75.9025 19.3635C75.9025 14.0328 71.5608 9.71136 66.2049 9.71136C60.8491 9.71136 56.5073 14.0328 56.5073 19.3635C56.5073 24.6943 60.8491 29.0157 66.2049 29.0157Z" stroke="black" stroke-width="4" stroke-miterlimit="10" stroke-linecap="round"/>
<path id="Vector_10" d="M57.8443 21.5825H74.5643C75.0659 21.5825 75.4003 22.1372 75.1217 22.5255L73.2267 26.0203L69.4926 28.4611H62.9718L58.7361 25.521L57.2313 22.5255C57.0083 22.0817 57.3427 21.5825 57.8443 21.5825Z" fill="black"/>
</g>
</svg>
