<svg width="111" height="112" viewBox="0 0 111 112" fill="none" xmlns="http://www.w3.org/2000/svg">
<g id="Toilet Paper">
<path id="Vector" fill-rule="evenodd" clip-rule="evenodd" d="M19.7358 28.8208C23.1244 24.1614 27.9054 21.3125 33.1168 21.3125H77.8835C83.3009 21.3125 88.0031 24.3363 91.2645 28.8208C94.5276 33.3075 96.4748 39.3917 96.4748 46.0083C96.4748 52.625 94.5276 58.7092 91.2645 63.1959C88.0031 67.6803 83.3009 70.7042 77.8835 70.7042H66.0427C65.9887 75.8515 65.5002 80.6974 64.5268 85.9402C63.9661 88.96 61.3099 91.0526 58.3202 91.0526H21.6993C17.6858 91.0526 14.8113 87.458 15.2381 83.6699C15.9488 77.3622 15.842 71.2511 15.5172 65.0515C15.4118 63.0409 15.2822 61.0047 15.1512 58.9473C14.8823 54.7257 14.6078 50.4146 14.526 46.0517L14.5251 46.0083H14.5256C14.5256 39.6562 16.3553 33.469 19.7358 28.8208ZM65.9794 66.0792H67.0143C66.642 65.7239 66.2814 65.352 65.9331 64.9648C65.9505 65.3388 65.9659 65.7102 65.9794 66.0792ZM64.9314 53.4892C64.6454 51.0917 64.3066 48.5559 63.9177 45.8461C63.9493 40.1669 65.6389 35.1215 68.2429 31.5411C70.8732 27.9243 74.3104 25.9375 77.8835 25.9375C81.4566 25.9375 84.8938 27.9243 87.5241 31.5411C90.1528 35.1555 91.8498 40.263 91.8498 46.0083C91.8498 51.7536 90.1528 56.8611 87.5241 60.4756C84.8938 64.0923 81.4566 66.0792 77.8835 66.0792C74.3104 66.0792 70.8732 64.0923 68.2429 60.4756C66.8305 58.5336 65.6871 56.1606 64.9314 53.4892ZM67.0143 25.9375C66.1046 26.8056 65.2642 27.7734 64.5024 28.8208C61.2394 33.3075 59.2922 39.3917 59.2922 46.0083C59.2922 48.9336 59.6728 51.7548 60.3794 54.3798C61.8542 66.9004 61.8052 75.2629 59.9795 85.0959C59.8405 85.8447 59.1635 86.4276 58.3202 86.4276H21.6993C20.6447 86.4276 19.6934 85.4359 19.834 84.1877C20.5869 77.5064 20.4655 71.1011 20.1359 64.8095C20.0247 62.6884 19.8913 60.5967 19.7585 58.5131C19.4937 54.3613 19.231 50.242 19.1506 45.987C19.1547 40.4742 20.7545 35.2834 23.4762 31.5411C26.1933 27.805 29.6935 25.9375 33.1168 25.9375H67.0143Z" fill="#22202A"/>
<path id="Vector_2" fill-rule="evenodd" clip-rule="evenodd" d="M77.8836 35.5564C75.3068 35.5564 73.1503 36.9544 71.717 38.8654C70.2843 40.7757 69.4666 43.3087 69.4666 46.0083C69.4666 48.7079 70.2843 51.241 71.717 53.1513C73.1503 55.0622 75.3068 56.4602 77.8836 56.4602C80.4604 56.4602 82.6169 55.0622 84.0502 53.1513C85.4829 51.241 86.3006 48.7079 86.3006 46.0083C86.3006 43.3087 85.4829 40.7757 84.0502 38.8654C82.6169 36.9544 80.4604 35.5564 77.8836 35.5564Z" fill="#22202A"/>
<path id="Vector_3" fill-rule="evenodd" clip-rule="evenodd" d="M23.125 53.6875C23.125 52.4103 24.1603 51.375 25.4375 51.375H29.1953C30.4725 51.375 31.5078 52.4103 31.5078 53.6875C31.5078 54.9647 30.4725 56 29.1953 56H25.4375C24.1603 56 23.125 54.9647 23.125 53.6875ZM34.3984 53.6875C34.3984 52.4103 35.4338 51.375 36.7109 51.375H44.2266C45.5037 51.375 46.5391 52.4103 46.5391 53.6875C46.5391 54.9647 45.5037 56 44.2266 56H36.7109C35.4338 56 34.3984 54.9647 34.3984 53.6875ZM49.4297 53.6875C49.4297 52.4103 50.465 51.375 51.7422 51.375H55.5C56.7772 51.375 57.8125 52.4103 57.8125 53.6875C57.8125 54.9647 56.7772 56 55.5 56H51.7422C50.465 56 49.4297 54.9647 49.4297 53.6875Z" fill="#22202A"/>
</g>
</svg>
