<svg width="40" height="91" viewBox="0 0 40 91" fill="none" xmlns="http://www.w3.org/2000/svg">
<g id="Sitting">
<path id="Vector" d="M38.69 42.286C38.126 41.715 37.375 41.399 36.574 41.397L26.574 41.366C25.917 41.364 25.15 40.789 24.963 40.158L20.952 26.598C20.945 26.575 20.933 26.56 20.926 26.537C20.683 25.125 19.457 24.046 17.977 24.046H11.592C9.93804 24.046 8.59204 25.392 8.59204 27.046V57.906C8.59204 59.56 9.93804 60.906 11.592 60.906H12.883C12.925 60.907 12.962 60.919 13.005 60.919L25.426 60.908C26.307 60.908 27.024 61.625 27.024 62.506V80.715C27.024 82.7 28.639 84.315 30.624 84.315H33.034C33.994 84.315 34.896 83.939 35.574 83.255C36.251 82.571 36.619 81.666 36.61 80.706L36.366 54.811C36.347 52.832 34.721 51.221 32.741 51.221H20.977V48.202C21.522 48.523 22.137 48.718 22.758 48.718H36.528C38.177 48.718 39.53 47.376 39.544 45.726L39.554 44.411C39.562 43.612 39.255 42.857 38.69 42.286Z" fill="black"/>
<path id="Vector_2" d="M14.785 20.838C20.392 20.838 24.954 16.276 24.954 10.669C24.954 5.062 20.392 0.5 14.785 0.5C9.17797 0.5 4.61597 5.062 4.61597 10.669C4.61597 16.276 9.17697 20.838 14.785 20.838Z" fill="black"/>
<path id="Vector_3" d="M21.181 62.982H4V56.918V23.002C4 21.898 3.104 21.002 2 21.002C0.896 21.002 0 21.898 0 23.002V56.918V62.982V88.012C0 89.116 0.896 90.012 2 90.012C3.104 90.012 4 89.116 4 88.012V66.982H21.181V88.012C21.181 89.116 22.077 90.012 23.181 90.012C24.285 90.012 25.181 89.116 25.181 88.012V66.982C25.181 64.777 23.387 62.982 21.181 62.982Z" fill="black"/>
</g>
</svg>
