<svg width="109" height="109" viewBox="0 0 109 109" fill="none" xmlns="http://www.w3.org/2000/svg">
<g id="Nurse">
<path id="Vector" fill-rule="evenodd" clip-rule="evenodd" d="M65.8542 68.125C65.8546 68.5825 65.7172 69.0444 65.431 69.445L54.0768 85.3408C53.3479 86.3614 51.9296 86.5977 50.9091 85.8688C49.8885 85.1398 49.6522 83.7216 50.3811 82.701L52.1016 80.2924L41.54 69.7308C41.0966 69.2874 40.8749 68.7062 40.8749 68.125H38.6041C35.7355 68.125 31.8419 69.4913 28.6699 72.0289C25.426 74.624 22.7083 78.635 22.7083 84.0208C22.7083 86.4551 23.0075 88.8268 24.0311 90.963C25.081 93.1541 26.801 94.9085 29.3037 96.2433C34.1114 98.8074 42.0133 99.9158 54.4853 99.9167L54.5 99.9167C66.9804 99.9167 74.8867 98.8084 79.6962 96.2433C82.1989 94.9085 83.9189 93.1541 84.9687 90.9631C85.9924 88.8268 86.2916 86.4551 86.2916 84.0209C86.2916 78.635 83.5739 74.624 80.33 72.0289C77.158 69.4913 73.2644 68.125 70.3958 68.125H65.8542ZM39.7395 78.3438C39.7395 77.0896 38.7228 76.0729 37.4687 76.0729C36.2145 76.0729 35.1978 77.0896 35.1978 78.3438V79.4792H34.0624C32.8083 79.4792 31.7916 80.4959 31.7916 81.75C31.7916 83.0041 32.8083 84.0208 34.0624 84.0208H35.1978V85.1562C35.1978 86.4104 36.2145 87.4271 37.4687 87.4271C38.7228 87.4271 39.7395 86.4104 39.7395 85.1562V84.0208H40.8749C42.1291 84.0208 43.1458 83.0041 43.1458 81.75C43.1458 80.4959 42.1291 79.4792 40.8749 79.4792H39.7395V78.3438Z" fill="#22202A"/>
<path id="Vector_2" fill-rule="evenodd" clip-rule="evenodd" d="M71.6555 23.0897C73.88 24.5728 75.8053 27.3849 77.1931 30.5357C78.6116 33.7562 79.6074 37.6405 79.7613 41.5812C79.9151 45.518 79.2315 49.6396 77.1461 53.2053C75.4709 56.0696 72.9497 58.4711 69.4555 60.1006C68.9609 61.0113 68.4165 61.8835 67.8272 62.7066C64.8647 66.845 60.2473 70.3959 54.4999 70.3959C48.7526 70.3959 44.1352 66.845 41.1726 62.7066C40.5834 61.8835 40.0389 61.0113 39.5444 60.1006C36.0501 58.4711 33.529 56.0696 31.8538 53.2053C29.7683 49.6396 29.0848 45.518 29.2385 41.5812C29.3925 37.6405 30.3882 33.7562 31.8068 30.5357C33.1946 27.3849 35.1198 24.5728 37.3444 23.0897C40.3132 21.1105 42.1835 27.1153 43.2739 28.8955C43.6502 29.5472 44.4817 29.7662 45.1563 29.4328C48.0563 27.9996 51.253 27.25 54.4999 27.25C57.7468 27.25 60.9436 27.9996 63.8435 29.4328C64.5181 29.7662 65.3497 29.5472 65.7259 28.8955C66.8158 27.1162 68.6862 21.1102 71.6555 23.0897ZM60.6472 32.4568C61.534 33.3436 61.534 34.7815 60.6472 35.6683C60.1982 36.1173 59.5896 36.7231 58.7944 37.4143C59.7553 38.3624 60.5921 39.1114 61.7603 39.6955C63.0729 40.3518 64.9762 40.875 68.1249 40.875C69.3791 40.875 70.3958 41.8917 70.3958 43.1459C70.3958 43.5454 70.2926 43.9208 70.1114 44.247C70.2983 45.3628 70.3958 46.5131 70.3958 47.6875C70.3958 52.5654 68.7139 57.5668 65.9807 61.3848C63.2666 65.1762 59.2548 68.125 54.4999 68.125C49.745 68.125 45.7332 65.1762 43.0191 61.3848C40.2859 57.5668 38.6041 52.5654 38.6041 47.6875C38.6041 46.79 38.661 45.9065 38.7713 45.0418C37.9257 44.7851 37.2726 44.0445 37.1722 43.1106C37.0382 41.8636 37.9405 40.7441 39.1875 40.6102C50.4995 39.3948 55.5607 34.3323 57.4002 32.4924L57.4358 32.4568C58.3226 31.57 59.7604 31.57 60.6472 32.4568Z" fill="#22202A"/>
<path id="Vector_3" fill-rule="evenodd" clip-rule="evenodd" d="M36.465 14.2071C42.0164 11.2738 48.2067 9.73531 54.5 9.73531C60.7933 9.73531 66.9837 11.2738 72.5351 14.2071C74.3883 15.1863 74.9437 17.4716 73.952 19.1893L67.6926 30.0309C66.672 31.7987 64.5014 32.2908 62.8375 31.4685C60.2499 30.1897 57.3973 29.5208 54.5 29.5208C51.6027 29.5208 48.7502 30.1897 46.1625 31.4685C44.4987 32.2908 42.3281 31.7987 41.3074 30.0309L35.048 19.1893C34.0564 17.4716 34.6118 15.1863 36.465 14.2071ZM39.4733 17.7707L44.8418 27.0692C47.8674 25.6954 51.1597 24.9791 54.5 24.9791C57.8403 24.9791 61.1327 25.6954 64.1583 27.0692L69.5268 17.7707C64.8601 15.4766 59.7202 14.277 54.5 14.277C49.2799 14.277 44.14 15.4766 39.4733 17.7707Z" fill="#22202A"/>
</g>
</svg>
