<svg width="39" height="39" viewBox="0 0 39 39" fill="none" xmlns="http://www.w3.org/2000/svg">
<g id="akar-icons:arrow-back-thick-fill">
<path id="Vector" fill-rule="evenodd" clip-rule="evenodd" d="M16.25 3.24999C16.2503 2.91109 16.1446 2.58058 15.9478 2.30471C15.751 2.02884 15.4728 1.82141 15.1522 1.71145C14.8317 1.60149 14.4848 1.59451 14.16 1.69147C13.8353 1.78844 13.549 1.98451 13.3412 2.25224L1.96625 16.8772C1.74435 17.1625 1.62387 17.5136 1.62387 17.875C1.62387 18.2364 1.74435 18.5875 1.96625 18.8727L13.3412 33.4977C13.549 33.7655 13.8353 33.9615 14.16 34.0585C14.4848 34.1555 14.8317 34.1485 15.1522 34.0385C15.4728 33.9286 15.751 33.7211 15.9478 33.4453C16.1446 33.1694 16.2503 32.8389 16.25 32.5V26.0162C24.9909 26.1982 29.1899 27.8574 31.2991 29.6611C33.3044 31.3755 33.6716 33.3921 34.0535 35.5046L34.1526 36.049C34.2255 36.4385 34.4383 36.788 34.7509 37.0316C35.0634 37.2752 35.4542 37.3963 35.8498 37.3719C36.2453 37.3475 36.6183 37.1795 36.8986 36.8993C37.1789 36.6192 37.3472 36.2463 37.3717 35.8507C37.6496 31.3852 37.232 24.9145 34.0779 19.5016C31.0164 14.248 25.5027 10.2082 16.25 9.78574V3.24999Z" fill="#C1C1C1"/>
</g>
</svg>
