<svg width="79" height="80" viewBox="0 0 79 80" fill="none" xmlns="http://www.w3.org/2000/svg">
<path id="Emotions" d="M50.6711 61.2158C49.1744 62.6199 46.8291 62.5428 45.4404 61.0461C44.2986 59.8271 42.3391 58.5156 39.5 58.5156C36.6609 58.5156 34.7014 59.8271 33.5596 61.0461C32.1709 62.5428 29.8256 62.6199 28.3289 61.2158C26.8322 59.8271 26.7551 57.4818 28.1592 55.9852C30.3502 53.6244 34.1613 51.1094 39.5 51.1094C44.8387 51.1094 48.6498 53.6244 50.8408 55.9852C52.2449 57.4818 52.1678 59.8271 50.6711 61.2158ZM22.2805 37.5312C22.2805 36.1734 22.8205 34.9391 23.7154 34.0441L18.9631 32.4703C17.6824 32.0383 16.9727 30.6342 17.4047 29.3381C17.8367 28.0574 19.2408 27.3477 20.5369 27.7797L35.3494 32.7172C36.6301 33.1492 37.201 34.5533 36.9078 35.8494C36.4758 37.1301 35.0717 37.701 33.7756 37.4078L32.1092 36.8523C32.14 37.0684 32.1555 37.2998 32.1555 37.5312C32.1555 40.2623 29.9336 42.4688 27.218 42.4688C24.4869 42.4688 22.2805 40.2623 22.2805 37.5312ZM56.843 37.5312C56.843 40.2623 54.6211 42.4688 51.9055 42.4688C49.1744 42.4688 46.968 40.2623 46.968 37.5312C46.968 37.2844 46.9834 37.0375 47.0143 36.8061L45.2244 37.4078C43.9283 37.701 42.5242 37.1301 42.0922 35.8494C41.6602 34.5533 42.3699 33.1492 43.6506 32.7172L58.4631 27.7797C59.7592 27.3477 61.1633 28.0574 61.5953 29.3381C61.8885 30.6342 61.3176 32.0383 60.0369 32.4703L55.3771 34.0133C56.2721 34.9082 56.843 36.158 56.843 37.5312ZM0 40C0 18.1824 17.6824 0.5 39.5 0.5C61.3176 0.5 79 18.1824 79 40C79 61.8176 61.3176 79.5 39.5 79.5C17.6824 79.5 0 61.8176 0 40ZM39.5 72.0938C57.2287 72.0938 71.5938 57.7287 71.5938 40C71.5938 22.2713 57.2287 7.90625 39.5 7.90625C21.7713 7.90625 7.40625 22.2713 7.40625 40C7.40625 57.7287 21.7713 72.0938 39.5 72.0938Z" fill="black"/>
</svg>
